<svg xmlns="http://www.w3.org/2000/svg" version="1.1" xmlns:xlink="http://www.w3.org/1999/xlink" xmlns:svgjs="http://svgjs.com/svgjs" width="1440" height="200" preserveAspectRatio="none" viewBox="0 0 1440 200">
    <g mask="url(&quot;#SvgjsMask1179&quot;)" fill="none">
        <rect width="1440" height="200" x="0" y="0" fill="rgba(89, 63, 75, 1)"></rect>
        <path d="M0,506.376C91.808,490.164,151.584,407.257,223.972,348.508C287.78,296.723,349.77,247.937,399.268,182.34C460.625,101.027,542.768,23.275,546.203,-78.532C549.772,-184.333,505.602,-302.994,417.628,-361.877C330.324,-420.312,213.582,-361.364,108.986,-371.172C29.809,-378.597,-43.232,-428.589,-121.09,-412.394C-201.699,-395.627,-259.702,-332.042,-324.336,-281.039C-404.274,-217.96,-540.435,-180.033,-544.494,-78.286C-548.697,27.058,-389.675,62.166,-341.775,156.084C-297.247,243.392,-349.758,367.586,-281.315,437.735C-212.515,508.25,-97.017,523.508,0,506.376" fill="#47323c"></path>
        <path d="M1440 544.102C1503.153 539.879 1547.123 483.186 1596.726 443.871 1641.371 408.486 1683.179 372.74 1715.442 325.79 1753.321 270.668 1805.979 214.861 1799.865 148.25900000000001 1793.7269999999999 81.399 1740.642 24.930000000000007 1684.449-11.816000000000003 1634.294-44.614000000000004 1566.525-19.004999999999995 1510.712-40.82499999999999 1446.441-65.95100000000002 1403.968-167.63 1338.041-147.24099999999999 1271.706-126.726 1286.275-22.723000000000013 1253.777 38.637 1230.44 82.699 1186.316 113.401 1174.359 161.80700000000002 1161.717 212.986 1169.467 266.053 1185.169 316.377 1202.538 372.046 1225.716 426.913 1269.199 465.771 1316.868 508.37 1376.212 548.367 1440 544.102" fill="#6b4c5a"></path>
    </g>
    <defs>
        <mask id="SvgjsMask1179">
            <rect width="1440" height="200" fill="#ffffff"></rect>
        </mask>
    </defs>
</svg>